<?xml version="1.0" encoding="utf-8"?>
<!-- Generator: Adobe Illustrator 27.0.1, SVG Export Plug-In . SVG Version: 6.00 Build 0)  -->
<svg version="1.1" id="Layer_1" xmlns="http://www.w3.org/2000/svg" xmlns:xlink="http://www.w3.org/1999/xlink" x="0px" y="0px"
	 viewBox="0 0 27 27" style="enable-background:new 0 0 27 27;" xml:space="preserve">
<path d="M14.2,1.5c0.1,0,0.1,0,0.2,0l0,0c0.7,0,1.3,0.4,1.8,0.9c0.4,0.5,1,0.8,1.7,0.8c0.2,0,0.3,0,0.5-0.1C18.6,3.1,18.8,3,19,3
	c0.5,0,1,0.1,1.4,0.4c0.6,0.4,1,1,1.1,1.7C21.4,6,22,6.7,22.8,6.9c0.7,0.2,1.2,0.7,1.5,1.3s0.3,1.3,0.1,2c-0.3,0.8-0.1,1.6,0.4,2.2
	c0.5,0.5,0.7,1.2,0.7,1.9s-0.4,1.3-0.9,1.8c-0.6,0.5-0.9,1.4-0.7,2.2c0.2,0.7,0,1.4-0.4,2s-1,1-1.7,1.1c-0.8,0.1-1.5,0.7-1.7,1.5
	c-0.2,0.7-0.7,1.2-1.3,1.5c-0.3,0.2-0.7,0.2-1.1,0.2c-0.3,0-0.6-0.1-0.9-0.2s-0.5-0.1-0.8-0.1c-0.5,0-1.1,0.2-1.5,0.6
	c-0.5,0.4-1.1,0.7-1.7,0.7c-0.1,0-0.1,0-0.2,0c-0.7,0-1.3-0.4-1.8-0.9c-0.4-0.5-1-0.8-1.7-0.8c-0.2,0-0.3,0-0.5,0.1
	c-0.2,0-0.4,0.1-0.6,0.1c-0.5,0-1-0.1-1.4-0.4c-0.6-0.4-1-1-1.1-1.7c0.1-1.1-0.5-1.8-1.3-2c-0.7-0.2-1.2-0.7-1.5-1.3
	c-0.3-0.6-0.3-1.3-0.1-2c0.3-0.8,0.1-1.6-0.4-2.2c-0.5-0.5-0.7-1.2-0.7-1.9s0.4-1.3,0.9-1.8C3,10.3,3.3,9.4,3.1,8.6
	c-0.2-0.7,0-1.4,0.4-2s1-1,1.7-1.1C6,5.5,6.7,5,7,4.2c0.2-0.7,0.6-1.3,1.2-1.6C8.6,2.5,9,2.4,9.3,2.4s0.6,0.1,0.9,0.2
	c0.3,0.1,0.5,0.2,0.8,0.2c0.5,0,1.1-0.2,1.5-0.6C12.9,1.7,13.6,1.5,14.2,1.5 M14.2,0c-1,0-2,0.4-2.7,1.1c-0.1,0.1-0.3,0.2-0.4,0.2
	c-0.1,0-0.2,0-0.2,0C10.3,1,9.8,0.9,9.3,0.9C8.7,0.9,8.1,1,7.6,1.3c-1,0.5-1.8,1.4-2.1,2.4C5.5,4,5.3,4.1,5,4.2
	C3.9,4.3,2.9,5,2.3,5.9S1.5,8,1.7,9c0.1,0.2,0,0.5-0.2,0.6c-0.9,0.7-1.4,1.7-1.5,2.8s0.3,2.2,1.1,3c0.2,0.2,0.2,0.4,0.1,0.7
	c-0.4,1-0.4,2.2,0.1,3.2s1.4,1.8,2.4,2.1c0.3,0.1,0.5,0.3,0.5,0.5C4.4,23,5,24,5.9,24.6c0.7,0.4,1.4,0.7,2.2,0.7
	c0.3,0,0.6,0,0.9-0.1h0.1c0.2,0,0.4,0.1,0.5,0.2c0.7,0.9,1.7,1.4,2.8,1.5c0.1,0,0.2,0,0.3,0c1,0,2-0.4,2.7-1.1
	c0.1-0.1,0.3-0.2,0.4-0.2c0.1,0,0.2,0,0.2,0c0.5,0.2,1,0.3,1.5,0.3c0.6,0,1.2-0.1,1.7-0.4c1-0.5,1.8-1.4,2.1-2.4
	c0.1-0.2,0.3-0.4,0.5-0.4c1.1-0.2,2.1-0.8,2.7-1.7c0.6-0.9,0.8-2.1,0.6-3.2c-0.1-0.2,0-0.5,0.2-0.6c0.9-0.7,1.4-1.7,1.5-2.8
	s-0.3-2.2-1.1-3c-0.2-0.2-0.2-0.4-0.1-0.7c0.4-1,0.4-2.2-0.1-3.2s-1.4-1.8-2.4-2.1c-0.2-0.1-0.4-0.3-0.4-0.5c-0.1-1-0.7-2-1.6-2.6
	c-0.7-0.4-1.4-0.7-2.2-0.7c-0.3,0-0.6,0-0.9,0.1h-0.1c-0.2,0-0.4-0.1-0.5-0.2c-0.7-0.9-1.7-1.4-2.8-1.5C14.4,0,14.3,0,14.2,0L14.2,0
	z"/>
</svg>
